#!OML:ASF E:\motion texture\Top Level 1\Subject 1\Session 1\male.ASF
:FULLY-SPECIFIED
:DEGREES
256
root 11.9255 16.6876 0.625202 181.069 -67.7142 -175.194
lowerback 15.4184 -3.00548 7.21488
upperback 4.78387 -3.25707 7.26768
thorax -3.45079 -1.93153 4.25911
lowerneck -13.578 7.65582 1.82355
upperneck 7.82686 10.5507 -5.46063
head 4.9467 4.86848 -1.10176
rclavicle 6.36111e-015 3.81667e-014
rhumerus -9.50213 -22.1638 -78.9816
rradius 96.0172
rwrist -27.844
rhand -23.1067 -45.7798
rfingers 7.12502
rthumb 3.34007 -75.7334
lclavicle 6.36111e-015 3.81667e-014
lhumerus 7.17949 -27.2413 88.7615
lradius 48.4637
lwrist -1.65573
lhand -5.96522 36.3573
lfingers 7.12502
lthumb 19.8658 65.362
rfemur -38.5396 1.49592 12.8889
rtibia 73.3952
rfoot 1.5294 -10.9389
rtoes 5.30143
lfemur -34.1897 3.77199 -24.6996
ltibia 51.7269
lfoot -17.6234 0.264904
ltoes 0.949482
257
root 11.7466 16.7127 0.607521 180.968 -68.4248 -175.218
lowerback 15.0685 -2.98632 7.26756
upperback 4.62105 -3.23503 7.41587
thorax -3.43124 -1.91808 4.36828
lowerneck -13.6319 7.60308 1.84664
upperneck 8.12398 10.5046 -5.55319
head 5.05336 4.83178 -1.12939
rclavicle -9.54166e-014 -2.22639e-014
rhumerus -8.82846 -23.2836 -78.5354
rradius 96.4922
rwrist -27.3996
rhand -24.0183 -46.1552
rfingers 7.12502
rthumb 2.45966 -76.1207
lclavicle -9.54166e-014 -2.22639e-014
lhumerus 6.98759 -25.8976 88.3942
lradius 48.0935
lwrist -2.76496
lhand -6.42895 36.0769
lfingers 7.12502
lthumb 19.42 65.1271
rfemur -38.8131 1.05726 13.2814
rtibia 72.256
rfoot 0.653383 -10.9747
rtoes 4.95631
lfemur -33.2322 3.35201 -24.9571
ltibia 51.4479
lfoot -17.8719 -0.0842537
ltoes 1.04771
258
root 11.5693 16.7408 0.589972 180.895 -69.1576 -175.233
lowerback 14.7091 -2.97038 7.32155
upperback 4.44957 -3.21796 7.56944
thorax -3.41492 -1.90728 4.48339
lowerneck -13.6946 7.54647 1.867
upperneck 8.41787 10.4544 -5.65044
head 5.16053 4.79217 -1.15847
rclavicle 1.11319e-014 6.99722e-014
rhumerus -8.15675 -24.414 -78.1032
rradius 96.9525
rwrist -26.9588
rhand -24.8882 -46.5059
rfingers 7.12502
rthumb 1.61952 -76.4795
lclavicle 1.11319e-014 6.99722e-014
lhumerus 6.75795 -24.512 88.0412
lradius 47.7254
lwrist -3.8277
lhand -6.87794 35.7845
lfingers 7.12502
lthumb 18.9882 64.8776
rfemur -39.0739 0.604604 13.669
rtibia 70.9689
rfoot -0.204886 -10.972
rtoes 4.51054
lfemur -32.2789 2.92712 -25.2021
ltibia 51.1006
lfoot -18.0741 -0.456312
ltoes 1.11518
259
root 11.3931 16.7717 0.572622 180.849 -69.9016 -175.244
lowerback 14.3396 -2.95495 7.37729
upperback 4.27206 -3.20278 7.72494
thorax -3.39892 -1.89756 4.59969
lowerneck -13.7633 7.48601 1.88624
upperneck 8.70599 10.3995 -5.752
head 5.26703 4.74965 -1.18933
rclavicle 1.82882e-014 3.97569e-014
rhumerus -7.48807 -25.5535 -77.6915
rradius 97.3975
rwrist -26.5199
rhand -25.7321 -46.8299
rfingers 7.12502
rthumb 0.804456 -76.8081
lclavicle 1.82882e-014 3.97569e-014
lhumerus 6.49874 -23.1042 87.6861
lradius 47.3621
lwrist -4.82685
lhand -7.3097 35.49
lfingers 7.12502
lthumb 18.5729 64.6234
rfemur -39.3178 0.149315 14.0452
rtibia 69.5436
rfoot -1.00928 -10.9261
rtoes 4.00645
lfemur -31.3265 2.50333 -25.4349
ltibia 50.6886
lfoot -18.2244 -0.847119
ltoes 1.16279
260
root 11.2177 16.8053 0.555246 180.83 -70.6624 -175.257
lowerback 13.9627 -2.94125 7.43193
upperback 4.08909 -3.19131 7.88202
thorax -3.3839 -1.88985 4.71887
lowerneck -13.8399 7.42095 1.90174
upperneck 8.99073 10.3392 -5.85354
head 5.37348 4.70392 -1.22027
rclavicle 1.74931e-014 -4.6118e-014
rhumerus -6.82402 -26.7015 -77.3025
rradius 97.8263
rwrist -26.0798
rhand -26.5295 -47.1303
rfingers 7.12502
rthumb 0.0343738 -77.1101
lclavicle 1.74931e-014 -4.6118e-014
lhumerus 6.20102 -21.6714 87.3391
lradius 47.0094
lwrist -5.76652
lhand -7.72814 35.189
lfingers 7.12502
lthumb 18.1704 64.3603
rfemur -39.5333 -0.3098 14.4051
rtibia 67.9863
rfoot -1.74083 -10.8377
rtoes 3.48807
lfemur -30.3717 2.07577 -25.6563
ltibia 50.2186
lfoot -18.3214 -1.26245
ltoes 1.20513
261
root 11.0431 16.841 0.537725 180.837 -71.439 -175.269
lowerback 13.5781 -2.92854 7.48265
upperback 3.90039 -3.18299 8.04122
thorax -3.36973 -1.88388 4.84296
lowerneck -13.9199 7.3512 1.91596
upperneck 9.26824 10.2731 -5.95871
head 5.47825 4.65484 -1.25307
rclavicle -7.95139e-014 -3.49861e-014
rhumerus -6.16505 -27.8542 -76.939
rradius 98.2373
rwrist -25.6365
rhand -27.2741 -47.4113
rfingers 7.12502
rthumb -0.684805 -77.3899
lclavicle -7.95139e-014 -3.49861e-014
lhumerus 5.86887 -20.2243 86.9952
lradius 46.6688
lwrist -6.63667
lhand -8.14754 34.8989
lfingers 7.12502
lthumb 17.7669 64.1073
rfemur -39.7208 -0.769458 14.747
rtibia 66.3101
rfoot -2.38868 -10.6997
rtoes 2.96505
lfemur -29.4208 1.64707 -25.865
ltibia 49.7008
lfoot -18.3672 -1.70202
ltoes 1.24351
262
root 10.8691 16.8786 0.520051 180.863 -72.2281 -175.28
lowerback 13.1861 -2.91505 7.5311
upperback 3.70754 -3.17547 8.2009
thorax -3.35513 -1.87847 4.9688
lowerneck -14.0059 7.27606 1.9308
upperneck 9.53946 10.1999 -6.06638
head 5.58203 4.60182 -1.28771
rclavicle 3.81667e-014 7.79236e-014
rhumerus -5.51155 -29.0124 -76.6063
rradius 98.6317
rwrist -25.192
rhand -27.9744 -47.6752
rfingers 7.12502
rthumb -1.3612 -77.6506
lclavicle 3.81667e-014 7.79236e-014
lhumerus 5.5098 -18.7741 86.6463
lradius 46.3401
lwrist -7.43881
lhand -8.52637 34.6081
lfingers 7.12502
lthumb 17.4023 63.8491
rfemur -39.8783 -1.22041 15.069
rtibia 64.5336
rfoot -2.94486 -10.5149
rtoes 2.43875
lfemur -28.4758 1.22162 -26.06
ltibia 49.1447
lfoot -18.3651 -2.16383
ltoes 1.27941
263
root 10.6954 16.9178 0.502098 180.9 -73.0305 -175.286
lowerback 12.7878 -2.9019 7.57657
upperback 3.51267 -3.17063 8.36189
thorax -3.33829 -1.87462 5.09796
lowerneck -14.0974 7.19558 1.94131
upperneck 9.80422 10.1201 -6.17389
head 5.68428 4.54524 -1.32263
rclavicle 2.14687e-014 -1.59028e-014
rhumerus -4.8615 -30.1704 -76.3088
rradius 99.0089
rwrist -24.7494
rhand -28.6306 -47.9237
rfingers 7.12502
rthumb -1.99494 -77.8941
lclavicle 2.14687e-014 -1.59028e-014
lhumerus 5.1248 -17.3221 86.2934
lradius 46.0233
lwrist -8.17376
lhand -8.87787 34.3161
lfingers 7.12502
lthumb 17.064 63.5867
rfemur -39.9949 -1.6597 15.3685
rtibia 62.6698
rfoot -3.3961 -10.2816
rtoes 1.93141
lfemur -27.5308 0.800361 -26.2396
ltibia 48.5544
lfoot -18.3174 -2.64653
ltoes 1.3101
264
root 10.5221 16.9583 0.483844 180.932 -73.8444 -175.271
lowerback 12.3849 -2.88807 7.62295
upperback 3.31429 -3.16626 8.52455
thorax -3.32188 -1.87131 5.22854
lowerneck -14.1928 7.10882 1.94761
upperneck 10.0638 10.0324 -6.28067
head 5.78507 4.48452 -1.35783
rclavicle -1.74931e-014 9.85972e-014
rhumerus -4.21661 -31.3257 -76.0506
rradius 99.3691
rwrist -24.3085
rhand -29.2515 -48.1582
rfingers 7.12502
rthumb -2.59463 -78.1221
lclavicle -1.74931e-014 9.85972e-014
lhumerus 4.7149 -15.8822 85.9355
lradius 45.7193
lwrist -8.82366
lhand -9.21473 34.0305
lfingers 7.12502
lthumb 16.7397 63.3288
rfemur -40.0716 -2.07768 15.6469
rtibia 60.739
rfoot -3.74181 -10.0185
rtoes 1.49661
lfemur -26.5924 0.388489 -26.3978
ltibia 47.9419
lfoot -18.2272 -3.15198
ltoes 1.33484
265
root 10.3488 16.9997 0.465245 180.953 -74.6668 -175.233
lowerback 11.9778 -2.87203 7.66969
upperback 3.11586 -3.16092 8.68822
thorax -3.30256 -1.86783 5.35976
lowerneck -14.2992 7.01531 1.94825
upperneck 10.32 9.93665 -6.3861
head 5.88601 4.41927 -1.39271
rclavicle -3.10104e-014 -6.36111e-014
rhumerus -3.57117 -32.4779 -75.8384
rradius 99.7131
rwrist -23.8706
rhand -29.8305 -48.3823
rfingers 7.12502
rthumb -3.15373 -78.3387
lclavicle -3.10104e-014 -6.36111e-014
lhumerus 4.29002 -14.4627 85.5686
lradius 45.426
lwrist -9.3926
lhand -9.5288 33.7559
lfingers 7.12502
lthumb 16.4374 63.0795
rfemur -40.1038 -2.46872 15.9009
rtibia 58.7571
rfoot -3.99468 -9.73953
rtoes 1.11338
lfemur -25.6569 -0.0112395 -26.5338
ltibia 47.3096
lfoot -18.0938 -3.68149
ltoes 1.35607
266
root 10.1754 17.0417 0.446299 180.962 -75.4951 -175.172
lowerback 11.5651 -2.85355 7.71497
upperback 2.91622 -3.15452 8.8528
thorax -3.28069 -1.86409 5.4925
lowerneck -14.4082 6.91488 1.94151
upperneck 10.5706 9.83271 -6.49034
head 5.98492 4.34969 -1.42738
rclavicle 2.8625e-014 -8.26944e-014
rhumerus -2.92687 -33.6189 -75.6763
rradius 100.041
rwrist -23.4344
rhand -30.3761 -48.5968
rfingers 7.12502
rthumb -3.68063 -78.5447
lclavicle 2.8625e-014 -8.26944e-014
lhumerus 3.85002 -13.0688 85.1944
lradius 45.1408
lwrist -9.87521
lhand -9.82098 33.4966
lfingers 7.12502
lthumb 16.156 62.8432
rfemur -40.0928 -2.82529 16.1272
rtibia 56.7422
rfoot -4.16869 -9.45527
rtoes 0.754458
lfemur -24.7284 -0.394699 -26.6477
ltibia 46.6672
lfoot -17.9193 -4.23622
ltoes 1.37109
267
root 10.0017 17.084 0.42708 180.952 -76.3233 -175.087
lowerback 11.1489 -2.83194 7.75843
upperback 2.71571 -3.14597 9.01796
thorax -3.25708 -1.85958 5.62663
lowerneck -14.5165 6.80789 1.92312
upperneck 10.8162 9.72163 -6.59082
head 6.08117 4.27635 -1.46038
rclavicle -3.33958e-014 -1.01778e-013
rhumerus -2.28349 -34.7412 -75.5679
rradius 100.354
rwrist -23.0029
rhand -30.8806 -48.8074
rfingers 7.12502
rthumb -4.16787 -78.7464
lclavicle -3.33958e-014 -1.01778e-013
lhumerus 3.39487 -11.6995 84.8152
lradius 44.8611
lwrist -10.2855
lhand -10.0774 33.2507
lfingers 7.12502
lthumb 15.9091 62.6173
rfemur -40.0353 -3.14355 16.3238
rtibia 54.7069
rfoot -4.26379 -9.16061
rtoes 0.426387
lfemur -23.8038 -0.758624 -26.7395
ltibia 46.0162
lfoot -17.7019 -4.8129
ltoes 1.37659
268
root 9.82785 17.1266 0.407429 180.921 -77.1575 -174.973
lowerback 10.7299 -2.80933 7.79704
upperback 2.51269 -3.13799 9.18425
thorax -3.23371 -1.85559 5.76501
lowerneck -14.6204 6.69481 1.8938
upperneck 11.0553 9.60401 -6.68878
head 6.17377 4.1996 -1.49227
rclavicle -3.18055e-015 -4.13472e-014
rhumerus -1.63987 -35.8383 -75.5183
rradius 100.654
rwrist -22.5758
rhand -31.3442 -49.0184
rfingers 7.12502
rthumb -4.61552 -78.9481
lclavicle -3.18055e-015 -4.13472e-014
lhumerus 2.92488 -10.3548 84.4332
lradius 44.5878
lwrist -10.6224
lhand -10.2934 33.0235
lfingers 7.12502
lthumb 15.7011 62.4065
rfemur -39.9308 -3.42787 16.4903
rtibia 52.6644
rfoot -4.2752 -8.86786
rtoes 0.150397
lfemur -22.89 -1.10483 -26.8084
ltibia 45.3678
lfoot -17.4411 -5.41651
ltoes 1.37164
269
root 9.65371 17.1691 0.387352 180.857 -77.9967 -174.822
lowerback 10.3095 -2.78272 7.83342
upperback 2.30869 -3.12618 9.34876
thorax -3.21014 -1.84987 5.90246
lowerneck -14.7287 6.57341 1.85925
upperneck 11.2924 9.47582 -6.78313
head 6.26565 4.11752 -1.5237
rclavicle -4.05521e-014 8.5875e-014
rhumerus -0.99334 -36.9165 -75.535
rradius 100.942
rwrist -22.1523
rhand -31.7676 -49.2347
rfingers 7.12502
rthumb -5.0243 -79.1551
lclavicle -4.05521e-014 8.5875e-014
lhumerus 2.45064 -9.05887 84.044
lradius 44.3169
lwrist -10.8831
lhand -10.4787 32.8236
lfingers 7.12502
lthumb 15.5226 62.2206
rfemur -39.7785 -3.67692 16.6263
rtibia 50.6282
rfoot -4.2149 -8.58875
rtoes -0.0718747
lfemur -21.9895 -1.43275 -26.8528
ltibia 44.7295
lfoot -17.1361 -6.04678
ltoes 1.36411
